# xmcd
#
# Track frame offsets:
#	150
#	18140
#	34865
#	61185
#	76172
#	94765
#	120275
#	135400
#	156372
#	176659
#	199237
#	213775
#	235072
#
# Disc length: 3402 seconds
#
# Revision: 0
# Processed by: cddbd v1.5.2PL0 Copyright (c) Steve Scherf et al.
# Submitted via: dBpowerAMP V4.0
#
DISCID=9a0d480d
DTITLE=Ismael Carvalho - Sunburst Blues
DYEAR=1998
DGENRE=Blues
TTITLE0=Your Love Is a Lie
TTITLE1=I Want to Hug You
TTITLE2=Funky Thang
TTITLE3=You May Be Wrong
TTITLE4=Broken Love
TTITLE5=Moonlight Over Astoria
TTITLE6=My Little Baby Is Gone
TTITLE7=I Wanna to Know
TTITLE8=The One
TTITLE9=Dust Road
TTITLE10=No Foolin'
TTITLE11=3 O'Clock in the Morning
TTITLE12=Blackjack (bônus track)
EXTD=
EXTT0=
EXTT1=
EXTT2=
EXTT3=
EXTT4=
EXTT5=
EXTT6=
EXTT7=
EXTT8=
EXTT9=
EXTT10=
EXTT11=
EXTT12=
PLAYORDER=
